#!OML:ASF H:\MichaelJackson\Top Level 1\Subject 1\Session 1\male.ASF
:FULLY-SPECIFIED
:DEGREES
1
root 6.08658 16.8085 -14.8706 6.70874 3.20125 -0.144807
lowerback -4.73942 -0.933562 -2.21264
upperback 0.445488 -1.16283 1.4493
thorax 3.19232 -0.630167 2.65054
lowerneck -8.51732 -1.38398 -3.91094
upperneck -0.806903 -1.53874 3.78496
head 1.27133 -0.689572 1.81643
rclavicle -6.70898e-015 9.74045e-015
rhumerus -41.3091 5.59532 -94.8162
rradius 39.5066
rwrist 1.91421
rhand -28.5788 -23.9426
rfingers 7.12502
rthumb -1.9449 -53.9135
lclavicle -6.70898e-015 9.74045e-015
lhumerus -41.5829 -5.91624 99.8049
lradius 42.5432
lwrist 14.7502
lhand -8.3727 7.64852
lfingers 7.12502
lthumb 17.5502 36.8764
rfemur -21.9133 -0.183859 21.456
rtibia 38.2651
rfoot -19.8912 -9.92433
rtoes 11.7591
lfemur -22.1131 1.95824 -22.6578
ltibia 37.8982
lfoot -22.4922 0.89817
ltoes 14.9937
2
root 6.08286 16.8089 -14.8672 6.77184 3.27888 -0.161598
lowerback -4.73452 -0.936135 -2.16111
upperback 0.458021 -1.16827 1.41632
thorax 3.20102 -0.631928 2.58695
lowerneck -8.50884 -1.39852 -3.81178
upperneck -0.872277 -1.56608 3.76295
head 1.24805 -0.703768 1.79009
rclavicle 3.42904e-015 -2.78299e-015
rhumerus -41.2254 5.47415 -94.8155
rradius 39.4424
rwrist 2.16255
rhand -28.6033 -23.8396
rfingers 7.12502
rthumb -1.96858 -53.8103
lclavicle 3.42904e-015 -2.78299e-015
lhumerus -41.5749 -5.95095 99.7337
lradius 42.5472
lwrist 14.6607
lhand -8.30657 7.46872
lfingers 7.12502
lthumb 17.6138 36.6909
rfemur -21.9463 -0.198348 21.4894
rtibia 38.2409
rfoot -19.9047 -9.94304
rtoes 11.6641
lfemur -22.1827 1.905 -22.6215
ltibia 37.8988
lfoot -22.48 0.880035
ltoes 15.1723
3
root 6.08039 16.8095 -14.863 6.82829 3.29379 -0.141436
lowerback -4.69423 -0.916562 -2.11181
upperback 0.453048 -1.1437 1.35418
thorax 3.16931 -0.617797 2.49734
lowerneck -8.56117 -1.4171 -3.71709
upperneck -0.857103 -1.59827 3.74799
head 1.26179 -0.719714 1.7671
rclavicle 2.2736e-014 -1.07344e-014
rhumerus -41.251 5.44036 -94.9017
rradius 39.0441
rwrist 3.3655
rhand -29.6759 -22.6516
rfingers 7.12502
rthumb -3.00446 -52.6102
lclavicle 2.2736e-014 -1.07344e-014
lhumerus -41.609 -5.95762 99.6424
lradius 42.5661
lwrist 14.6217
lhand -8.33436 7.44104
lfingers 7.12502
lthumb 17.5871 36.6656
rfemur -21.9728 -0.201814 21.4702
rtibia 38.2126
rfoot -19.9569 -9.88608
rtoes 11.9739
lfemur -22.2206 1.78774 -22.6263
ltibia 37.8842
lfoot -22.4657 0.972585
ltoes 15.07
4
root 6.07765 16.8108 -14.86 6.8969 3.35069 -0.116333
lowerback -4.69003 -0.899654 -2.10092
upperback 0.453713 -1.12046 1.31065
thorax 3.16508 -0.605585 2.448
lowerneck -8.51152 -1.43838 -3.61932
upperneck -0.922428 -1.63546 3.71265
head 1.23145 -0.739512 1.73637
rclavicle -7.28049e-015 4.57205e-015
rhumerus -41.2454 5.30412 -94.9017
rradius 39.0338
rwrist 3.58019
rhand -29.7801 -22.5282
rfingers 7.12502
rthumb -3.10512 -52.4853
lclavicle -7.28049e-015 4.57205e-015
lhumerus -41.6105 -5.98495 99.5794
lradius 42.5618
lwrist 14.668
lhand -8.37034 7.42334
lfingers 7.12502
lthumb 17.5525 36.651
rfemur -22.0159 -0.223165 21.4521
rtibia 38.1817
rfoot -20.0017 -9.85907
rtoes 12.3925
lfemur -22.2828 1.74939 -22.6412
ltibia 37.8677
lfoot -22.454 0.951868
ltoes 14.9909
5
root 6.07505 16.8128 -14.8551 6.94766 3.30831 -0.11246
lowerback -4.6781 -0.856155 -2.07806
upperback 0.451552 -1.0628 1.27491
thorax 3.15157 -0.575956 2.4027
lowerneck -8.52329 -1.45377 -3.58663
upperneck -0.899439 -1.65952 3.72823
head 1.24165 -0.751121 1.73478
rclavicle -2.16178e-015 1.98785e-016
rhumerus -41.3274 5.26914 -94.9379
rradius 39.164
rwrist 3.52602
rhand -29.7357 -22.7133
rfingers 7.12502
rthumb -3.06217 -52.6711
lclavicle -2.16178e-015 1.98785e-016
lhumerus -41.6233 -5.95291 99.4881
lradius 42.5241
lwrist 14.8355
lhand -8.36983 7.26225
lfingers 7.12502
lthumb 17.553 36.4899
rfemur -22.0347 -0.147364 21.453
rtibia 38.1443
rfoot -20.006 -9.89479
rtoes 12.3313
lfemur -22.2969 1.79587 -22.6401
ltibia 37.8422
lfoot -22.4893 0.973031
ltoes 15.6895
6
root 6.0724 16.8143 -14.8506 7.00099 3.30775 -0.106629
lowerback -4.66694 -0.826309 -2.04928
upperback 0.451704 -1.02357 1.23537
thorax 3.14185 -0.555444 2.34871
lowerneck -8.52164 -1.47115 -3.51824
upperneck -0.903702 -1.68895 3.71575
head 1.23989 -0.766128 1.71736
rclavicle 6.33626e-015 -2.00773e-014
rhumerus -41.3629 5.20676 -94.9733
rradius 39.1496
rwrist 3.77068
rhand -29.9311 -22.5716
rfingers 7.12502
rthumb -3.25096 -52.5265
lclavicle 6.33626e-015 -2.00773e-014
lhumerus -41.6377 -5.954 99.412
lradius 42.5102
lwrist 14.9017
lhand -8.40236 7.19189
lfingers 7.12502
lthumb 17.5217 36.4223
rfemur -22.0509 -0.107056 21.4536
rtibia 38.1028
rfoot -20.0717 -9.87139
rtoes 12.7484
lfemur -22.3217 1.78661 -22.6351
ltibia 37.8127
lfoot -22.5014 0.987277
ltoes 15.9485
7
root 6.06984 16.8159 -14.8456 7.05222 3.30049 -0.103764
lowerback -4.65925 -0.793855 -2.01989
upperback 0.450512 -0.980894 1.19754
thorax 3.13264 -0.533215 2.29636
lowerneck -8.51809 -1.48853 -3.45229
upperneck -0.898798 -1.71836 3.7025
head 1.24075 -0.781153 1.70019
rclavicle -6.4605e-015 1.43125e-014
rhumerus -41.4072 5.15238 -95.0131
rradius 39.1512
rwrist 3.96459
rhand -30.1034 -22.4698
rfingers 7.12502
rthumb -3.41735 -52.4222
lclavicle -6.4605e-015 1.43125e-014
lhumerus -41.6557 -5.95738 99.3395
lradius 42.492
lwrist 14.9681
lhand -8.45822 7.14165
lfingers 7.12502
lthumb 17.4679 36.3768
rfemur -22.059 -0.0516385 21.4574
rtibia 38.0546
rfoot -20.1666 -9.83954
rtoes 13.3187
lfemur -22.3391 1.78506 -22.627
ltibia 37.7781
lfoot -22.5214 0.999667
ltoes 16.1848
8
root 6.06743 16.8173 -14.8403 7.10204 3.28643 -0.104755
lowerback -4.65992 -0.759176 -1.98937
upperback 0.450062 -0.935239 1.16184
thorax 3.12884 -0.50958 2.2457
lowerneck -8.51088 -1.50578 -3.38829
upperneck -0.888921 -1.74767 3.69056
head 1.2426 -0.796122 1.68382
rclavicle -1.1778e-014 6.16232e-015
rhumerus -41.4507 5.10127 -95.0531
rradius 39.1722
rwrist 4.08316
rhand -30.22 -22.4224
rfingers 7.12502
rthumb -3.52996 -52.3729
lclavicle -1.1778e-014 6.16232e-015
lhumerus -41.6753 -5.96704 99.272
lradius 42.4699
lwrist 15.0203
lhand -8.53041 7.1067
lfingers 7.12502
lthumb 17.3984 36.348
rfemur -22.0604 0.0172097 21.4651
rtibia 38.0033
rfoot -20.2976 -9.79468
rtoes 14.038
lfemur -22.3515 1.78764 -22.6148
ltibia 37.7426
lfoot -22.552 1.01507
ltoes 16.3732
9
root 6.06508 16.8186 -14.8344 7.15102 3.27114 -0.109058
lowerback -4.668 -0.724164 -1.9579
upperback 0.449661 -0.889122 1.12761
thorax 3.12936 -0.485763 2.19599
lowerneck -8.50582 -1.5236 -3.32369
upperneck -0.870725 -1.77791 3.67809
head 1.24751 -0.811537 1.66719
rclavicle -5.04416e-015 8.94531e-015
rhumerus -41.4912 5.05277 -95.0948
rradius 39.1881
rwrist 4.18327
rhand -30.3262 -22.3723
rfingers 7.12502
rthumb -3.63247 -52.321
lclavicle -5.04416e-015 8.94531e-015
lhumerus -41.6966 -5.98504 99.2091
lradius 42.442
lwrist 15.0473
lhand -8.61684 7.08061
lfingers 7.12502
lthumb 17.3152 36.3293
rfemur -22.0539 0.0998796 21.4763
rtibia 37.9488
rfoot -20.4682 -9.74365
rtoes 14.8797
lfemur -22.3587 1.78332 -22.5981
ltibia 37.7044
lfoot -22.5916 1.03844
ltoes 16.4955
